{
	"patcher" : 	{
		"fileversion" : 1,
		"appversion" : 		{
			"major" : 8,
			"minor" : 1,
			"revision" : 3,
			"architecture" : "x64",
			"modernui" : 1
		}
,
		"classnamespace" : "box",
		"rect" : [ 87.0, 96.0, 1120.0, 632.0 ],
		"bglocked" : 0,
		"openinpresentation" : 0,
		"default_fontsize" : 12.0,
		"default_fontface" : 0,
		"default_fontname" : "Arial",
		"gridonopen" : 1,
		"gridsize" : [ 15.0, 15.0 ],
		"gridsnaponopen" : 1,
		"objectsnaponopen" : 1,
		"statusbarvisible" : 2,
		"toolbarvisible" : 1,
		"lefttoolbarpinned" : 0,
		"toptoolbarpinned" : 0,
		"righttoolbarpinned" : 0,
		"bottomtoolbarpinned" : 0,
		"toolbars_unpinned_last_save" : 0,
		"tallnewobj" : 0,
		"boxanimatetime" : 200,
		"enablehscroll" : 1,
		"enablevscroll" : 1,
		"devicewidth" : 0.0,
		"description" : "",
		"digest" : "",
		"tags" : "",
		"style" : "",
		"subpatcher_template" : "",
		"boxes" : [ 			{
				"box" : 				{
					"id" : "obj-63",
					"linecount" : 5,
					"maxclass" : "comment",
					"numinlets" : 1,
					"numoutlets" : 0,
					"patching_rect" : [ 945.833333333333258, 433.0, 150.0, 75.0 ],
					"text" : "First we print the mg based on the absences of red cells in the sg, then we print the green sg cells on top."
				}

			}
, 			{
				"box" : 				{
					"id" : "obj-60",
					"maxclass" : "newobj",
					"numinlets" : 4,
					"numoutlets" : 2,
					"outlettype" : [ "jit_matrix", "" ],
					"patching_rect" : [ 730.404111333333503, 451.0, 72.0, 22.0 ],
					"text" : "jit.pack 4"
				}

			}
, 			{
				"box" : 				{
					"id" : "obj-58",
					"maxclass" : "newobj",
					"numinlets" : 2,
					"numoutlets" : 2,
					"outlettype" : [ "jit_matrix", "" ],
					"patching_rect" : [ 730.404111333333503, 521.0, 108.0, 22.0 ],
					"text" : "jit.alphablend"
				}

			}
, 			{
				"box" : 				{
					"id" : "obj-24",
					"maxclass" : "newobj",
					"numinlets" : 2,
					"numoutlets" : 2,
					"outlettype" : [ "jit_matrix", "" ],
					"patching_rect" : [ 819.404111333333503, 486.0, 100.0, 22.0 ],
					"text" : "jit.alphablend"
				}

			}
, 			{
				"box" : 				{
					"id" : "obj-4",
					"maxclass" : "newobj",
					"numinlets" : 4,
					"numoutlets" : 2,
					"outlettype" : [ "jit_matrix", "" ],
					"patching_rect" : [ 819.404111333333503, 451.0, 75.0, 22.0 ],
					"text" : "jit.pack 4"
				}

			}
, 			{
				"box" : 				{
					"id" : "obj-3",
					"maxclass" : "newobj",
					"numinlets" : 1,
					"numoutlets" : 5,
					"outlettype" : [ "jit_matrix", "jit_matrix", "jit_matrix", "jit_matrix", "" ],
					"patching_rect" : [ 730.404111333333503, 400.0, 127.0, 22.0 ],
					"text" : "jit.unpack 4"
				}

			}
, 			{
				"box" : 				{
					"id" : "obj-35",
					"maxclass" : "comment",
					"numinlets" : 1,
					"numoutlets" : 0,
					"patching_rect" : [ 42.5, 23.0, 58.0, 20.0 ],
					"text" : "controls"
				}

			}
, 			{
				"box" : 				{
					"comment" : "",
					"id" : "obj-33",
					"index" : 1,
					"maxclass" : "inlet",
					"numinlets" : 0,
					"numoutlets" : 1,
					"outlettype" : [ "" ],
					"patching_rect" : [ 51.0, 45.0, 30.0, 30.0 ]
				}

			}
, 			{
				"box" : 				{
					"id" : "obj-29",
					"maxclass" : "comment",
					"numinlets" : 1,
					"numoutlets" : 0,
					"patching_rect" : [ 387.577055666666865, 137.0, 108.0, 20.0 ],
					"text" : "sg and mg layered"
				}

			}
, 			{
				"box" : 				{
					"id" : "obj-30",
					"maxclass" : "comment",
					"numinlets" : 1,
					"numoutlets" : 0,
					"patching_rect" : [ 301.410389000000123, 137.0, 62.0, 20.0 ],
					"text" : "only mg"
				}

			}
, 			{
				"box" : 				{
					"id" : "obj-31",
					"maxclass" : "comment",
					"numinlets" : 1,
					"numoutlets" : 0,
					"patching_rect" : [ 205.910389000000123, 137.0, 74.0, 20.0 ],
					"text" : "only sg"
				}

			}
, 			{
				"box" : 				{
					"id" : "obj-32",
					"maxclass" : "comment",
					"numinlets" : 1,
					"numoutlets" : 0,
					"patching_rect" : [ 56.080194500000061, 137.0, 74.160389000000123, 20.0 ],
					"text" : "sg and mg"
				}

			}
, 			{
				"box" : 				{
					"id" : "obj-13",
					"maxclass" : "newobj",
					"numinlets" : 2,
					"numoutlets" : 2,
					"outlettype" : [ "jit_matrix", "" ],
					"patching_rect" : [ 386.070778000000246, 398.0, 105.083333333333314, 22.0 ],
					"text" : "jit.glue @rows 2"
				}

			}
, 			{
				"box" : 				{
					"comment" : "",
					"id" : "obj-10",
					"index" : 1,
					"maxclass" : "outlet",
					"numinlets" : 1,
					"numoutlets" : 0,
					"patching_rect" : [ 644.320778000000246, 556.0, 30.0, 30.0 ]
				}

			}
, 			{
				"box" : 				{
					"comment" : "",
					"id" : "obj-23",
					"index" : 3,
					"maxclass" : "inlet",
					"numinlets" : 0,
					"numoutlets" : 1,
					"outlettype" : [ "jit_matrix" ],
					"patching_rect" : [ 902.570778000000246, 51.0, 30.0, 30.0 ]
				}

			}
, 			{
				"box" : 				{
					"comment" : "",
					"id" : "obj-22",
					"index" : 2,
					"maxclass" : "inlet",
					"numinlets" : 0,
					"numoutlets" : 1,
					"outlettype" : [ "" ],
					"patching_rect" : [ 644.320778000000246, 55.0, 30.0, 30.0 ]
				}

			}
, 			{
				"box" : 				{
					"id" : "obj-21",
					"maxclass" : "newobj",
					"numinlets" : 5,
					"numoutlets" : 5,
					"outlettype" : [ "bang", "bang", "bang", "bang", "" ],
					"patching_rect" : [ 51.0, 105.0, 464.213852000000202, 22.0 ],
					"text" : "sel 0 1 2 3"
				}

			}
, 			{
				"box" : 				{
					"id" : "obj-17",
					"maxclass" : "message",
					"numinlets" : 2,
					"numoutlets" : 1,
					"outlettype" : [ "" ],
					"patching_rect" : [ 384.910389000000123, 163.0, 121.410389000000123, 22.0 ],
					"text" : "clear, 0 4 1, 1 5 1"
				}

			}
, 			{
				"box" : 				{
					"id" : "obj-16",
					"maxclass" : "comment",
					"numinlets" : 1,
					"numoutlets" : 0,
					"patching_rect" : [ 880.0, 27.0, 82.0, 20.0 ],
					"text" : "motiongram"
				}

			}
, 			{
				"box" : 				{
					"id" : "obj-14",
					"maxclass" : "comment",
					"numinlets" : 1,
					"numoutlets" : 0,
					"patching_rect" : [ 627.320778000000246, 27.0, 79.0, 20.0 ],
					"text" : "spectrogram"
				}

			}
, 			{
				"box" : 				{
					"id" : "obj-11",
					"maxclass" : "message",
					"numinlets" : 2,
					"numoutlets" : 1,
					"outlettype" : [ "" ],
					"patching_rect" : [ 281.910389000000123, 163.0, 96.0, 22.0 ],
					"text" : "clear, 1 3 1"
				}

			}
, 			{
				"box" : 				{
					"id" : "obj-8",
					"maxclass" : "message",
					"numinlets" : 2,
					"numoutlets" : 1,
					"outlettype" : [ "" ],
					"patching_rect" : [ 181.910389000000123, 163.0, 96.0, 22.0 ],
					"text" : "clear, 0 2 1"
				}

			}
, 			{
				"box" : 				{
					"id" : "obj-5",
					"maxclass" : "message",
					"numinlets" : 2,
					"numoutlets" : 1,
					"outlettype" : [ "" ],
					"patching_rect" : [ 51.0, 163.0, 118.0, 22.0 ],
					"text" : "clear, 0 0 1, 1 1 1"
				}

			}
, 			{
				"box" : 				{
					"id" : "obj-2",
					"maxclass" : "comment",
					"numinlets" : 1,
					"numoutlets" : 0,
					"patching_rect" : [ 739.904111333333503, 372.0, 108.0, 20.0 ],
					"text" : "sg and mg layered"
				}

			}
, 			{
				"box" : 				{
					"id" : "obj-1",
					"maxclass" : "comment",
					"numinlets" : 1,
					"numoutlets" : 0,
					"patching_rect" : [ 644.320778000000246, 372.0, 62.0, 20.0 ],
					"text" : "only mg"
				}

			}
, 			{
				"box" : 				{
					"id" : "obj-74",
					"maxclass" : "comment",
					"numinlets" : 1,
					"numoutlets" : 0,
					"patching_rect" : [ 548.820778000000246, 372.0, 74.0, 20.0 ],
					"text" : "only sg"
				}

			}
, 			{
				"box" : 				{
					"id" : "obj-73",
					"maxclass" : "comment",
					"numinlets" : 1,
					"numoutlets" : 0,
					"patching_rect" : [ 398.990583500000184, 372.0, 74.160389000000123, 20.0 ],
					"text" : "sg and mg"
				}

			}
, 			{
				"box" : 				{
					"columns" : 2,
					"id" : "obj-25",
					"maxclass" : "matrixctrl",
					"numinlets" : 1,
					"numoutlets" : 2,
					"outlettype" : [ "list", "list" ],
					"parameter_enable" : 0,
					"patching_rect" : [ 385.910389000000123, 215.0, 47.5, 106.5 ],
					"rows" : 6,
					"scale" : 0
				}

			}
, 			{
				"box" : 				{
					"id" : "obj-86",
					"maxclass" : "newobj",
					"numinlets" : 3,
					"numoutlets" : 7,
					"outlettype" : [ "", "", "", "", "", "", "" ],
					"patching_rect" : [ 386.070778000000246, 336.0, 535.5, 22.0 ],
					"text" : "router 2 6"
				}

			}
 ],
		"lines" : [ 			{
				"patchline" : 				{
					"destination" : [ "obj-25", 0 ],
					"source" : [ "obj-11", 0 ]
				}

			}
, 			{
				"patchline" : 				{
					"destination" : [ "obj-10", 0 ],
					"source" : [ "obj-13", 0 ]
				}

			}
, 			{
				"patchline" : 				{
					"destination" : [ "obj-25", 0 ],
					"source" : [ "obj-17", 0 ]
				}

			}
, 			{
				"patchline" : 				{
					"destination" : [ "obj-11", 0 ],
					"source" : [ "obj-21", 2 ]
				}

			}
, 			{
				"patchline" : 				{
					"destination" : [ "obj-17", 0 ],
					"source" : [ "obj-21", 3 ]
				}

			}
, 			{
				"patchline" : 				{
					"destination" : [ "obj-5", 0 ],
					"source" : [ "obj-21", 0 ]
				}

			}
, 			{
				"patchline" : 				{
					"destination" : [ "obj-8", 0 ],
					"source" : [ "obj-21", 1 ]
				}

			}
, 			{
				"patchline" : 				{
					"destination" : [ "obj-86", 1 ],
					"source" : [ "obj-22", 0 ]
				}

			}
, 			{
				"patchline" : 				{
					"destination" : [ "obj-86", 2 ],
					"source" : [ "obj-23", 0 ]
				}

			}
, 			{
				"patchline" : 				{
					"destination" : [ "obj-58", 1 ],
					"source" : [ "obj-24", 0 ]
				}

			}
, 			{
				"patchline" : 				{
					"destination" : [ "obj-86", 0 ],
					"source" : [ "obj-25", 0 ]
				}

			}
, 			{
				"patchline" : 				{
					"destination" : [ "obj-4", 3 ],
					"order" : 0,
					"source" : [ "obj-3", 3 ]
				}

			}
, 			{
				"patchline" : 				{
					"destination" : [ "obj-4", 2 ],
					"order" : 0,
					"source" : [ "obj-3", 2 ]
				}

			}
, 			{
				"patchline" : 				{
					"destination" : [ "obj-4", 1 ],
					"order" : 0,
					"source" : [ "obj-3", 1 ]
				}

			}
, 			{
				"patchline" : 				{
					"destination" : [ "obj-4", 0 ],
					"order" : 1,
					"source" : [ "obj-3", 1 ]
				}

			}
, 			{
				"patchline" : 				{
					"destination" : [ "obj-60", 3 ],
					"order" : 1,
					"source" : [ "obj-3", 3 ]
				}

			}
, 			{
				"patchline" : 				{
					"destination" : [ "obj-60", 2 ],
					"order" : 1,
					"source" : [ "obj-3", 2 ]
				}

			}
, 			{
				"patchline" : 				{
					"destination" : [ "obj-60", 0 ],
					"order" : 2,
					"source" : [ "obj-3", 2 ]
				}

			}
, 			{
				"patchline" : 				{
					"destination" : [ "obj-60", 1 ],
					"order" : 2,
					"source" : [ "obj-3", 1 ]
				}

			}
, 			{
				"patchline" : 				{
					"destination" : [ "obj-21", 0 ],
					"source" : [ "obj-33", 0 ]
				}

			}
, 			{
				"patchline" : 				{
					"destination" : [ "obj-24", 0 ],
					"source" : [ "obj-4", 0 ]
				}

			}
, 			{
				"patchline" : 				{
					"destination" : [ "obj-25", 0 ],
					"source" : [ "obj-5", 0 ]
				}

			}
, 			{
				"patchline" : 				{
					"destination" : [ "obj-10", 0 ],
					"source" : [ "obj-58", 0 ]
				}

			}
, 			{
				"patchline" : 				{
					"destination" : [ "obj-58", 0 ],
					"source" : [ "obj-60", 0 ]
				}

			}
, 			{
				"patchline" : 				{
					"destination" : [ "obj-25", 0 ],
					"source" : [ "obj-8", 0 ]
				}

			}
, 			{
				"patchline" : 				{
					"destination" : [ "obj-10", 0 ],
					"source" : [ "obj-86", 3 ]
				}

			}
, 			{
				"patchline" : 				{
					"destination" : [ "obj-10", 0 ],
					"source" : [ "obj-86", 2 ]
				}

			}
, 			{
				"patchline" : 				{
					"destination" : [ "obj-13", 1 ],
					"source" : [ "obj-86", 1 ]
				}

			}
, 			{
				"patchline" : 				{
					"destination" : [ "obj-13", 0 ],
					"source" : [ "obj-86", 0 ]
				}

			}
, 			{
				"patchline" : 				{
					"destination" : [ "obj-24", 1 ],
					"source" : [ "obj-86", 5 ]
				}

			}
, 			{
				"patchline" : 				{
					"destination" : [ "obj-3", 0 ],
					"source" : [ "obj-86", 4 ]
				}

			}
 ]
	}

}
